<?xml version="1.0" encoding="UTF-8" standalone="no"?>
<svg
   width="64"
   height="64"
   viewBox="0 0 64 64"
   fill="none"
   version="1.1"
   id="svg6"
   sodipodi:docname="vm_logo.svg"
   inkscape:version="1.3.2 (091e20e, 2023-11-25, custom)"
   xmlns:inkscape="http://www.inkscape.org/namespaces/inkscape"
   xmlns:sodipodi="http://sodipodi.sourceforge.net/DTD/sodipodi-0.dtd"
   xmlns="http://www.w3.org/2000/svg"
   xmlns:svg="http://www.w3.org/2000/svg">
  <defs
     id="defs6" />
  <sodipodi:namedview
     id="namedview6"
     pagecolor="#ffffff"
     bordercolor="#000000"
     borderopacity="0.25"
     inkscape:showpageshadow="2"
     inkscape:pageopacity="0.0"
     inkscape:pagecheckerboard="0"
     inkscape:deskcolor="#d1d1d1"
     inkscape:zoom="29.015625"
     inkscape:cx="31.982768"
     inkscape:cy="33.309639"
     inkscape:window-width="3840"
     inkscape:window-height="2071"
     inkscape:window-x="3191"
     inkscape:window-y="-9"
     inkscape:window-maximized="1"
     inkscape:current-layer="svg6" />
  <g
     transform="matrix(6.9779526,0,0,6.9779526,-11.519757,-32.977808)"
     id="g6">
    <g
       transform="matrix(0.26458,0,0,0.26458,-24.183,-149.23)"
       style="white-space:pre;shape-inside:url(#rect16468)"
       aria-label="Nefkens"
       id="g5">
      <g
         transform="translate(0.23571,1.28)"
         id="g4">
        <circle
           cx="114.74"
           cy="597.94"
           r="17.334"
           fill="#004266"
           stroke-width="0.75728"
           style="white-space:pre;shape-inside:url(#rect16468)"
           id="circle1" />
        <g
           transform="matrix(0,-1.0271,1,0,-426.36,1201.5)"
           style="white-space:pre;shape-inside:url(#rect16468)"
           id="g3">
          <g
             transform="translate(-3.9121e-7,-0.11112)"
             stroke-width="0.82944"
             id="g2">
            <path
               d="m 580.89,551.43 c -0.97232,2e-4 -1.8346,-0.08 -2.5867,-0.24 -0.7521,-0.16 -1.3851,-0.56 -1.8988,-1.2 -0.5137,-0.64 -0.89894,-1.6667 -1.1558,-3.08 -0.25683,-1.3867 -0.38526,-3.32 -0.38526,-5.8 0,-2 0.0826,-3.6533 0.24767,-4.96 0.16511,-1.28 0.41277,-2.28 0.743,-3 0.33022,-0.69333 0.72465,-1.2 1.1833,-1.52 0.47699,-0.29333 1.0182,-0.48 1.6236,-0.56 0.60541,-0.0533 1.2658,-0.0799 1.9813,-0.08 l 5.2285,-7.1e-4 h 1.7062 v 5.3207 h -7.8428 c -0.78886,0 -1.3851,0.16 -1.7887,0.48 -0.4036,0.34667 -0.67879,0.86667 -0.82555,1.56 -0.14676,0.72 -0.22014,1.64 -0.22014,2.76 0,1.7867 0.21097,3.0533 0.63292,3.8 0.42195,0.77333 1.1466,1.16 2.174,1.16 h 7.8703 v 5.359 c 0,0 -0.77058,-0.003 -1.7062,0 z"
               fill="#ed9017"
               style="white-space:pre;shape-inside:url(#rect16468)"
               id="path1" />
            <path
               d="m 594.26,551.43 c 0.97233,2e-4 1.8346,-0.08 2.5868,-0.24 0.75218,-0.16 1.3851,-0.56 1.8988,-1.2 0.51368,-0.63999 0.89894,-1.6667 1.1558,-3.08 0.25684,-1.3867 0.38526,-3.32 0.38526,-5.8 0,-2 -0.0826,-3.6533 -0.24767,-4.96 -0.16511,-1.28 -0.41278,-2.28 -0.743,-3 -0.33022,-0.69332 -0.72465,-1.2 -1.1833,-1.52 -0.47699,-0.29332 -1.0182,-0.48 -1.6236,-0.55999 -0.60541,-0.0533 -1.2658,-0.0799 -1.9813,-0.08 l -5.2285,-7.1e-4 h -1.7062 v 5.3207 h 7.8428 c 0.78887,0 1.3851,0.16 1.7887,0.48 0.4036,0.34667 0.6788,0.86667 0.82556,1.56 0.14677,0.72 0.22014,1.64 0.22014,2.76 0,1.7867 -0.21097,3.0533 -0.63292,3.8 -0.42195,0.77333 -1.1466,1.16 -2.174,1.16 h -7.8703 v 5.359 c 0,0 0.77059,-0.003 1.7062,0 z"
               fill="#ffffff"
               style="white-space:pre;shape-inside:url(#rect16468)"
               id="path2" />
          </g>
        </g>
      </g>
    </g>
  </g>
</svg>
